# Generated Igloo OBJ
o Igloo
v 3.0902 0.0118 0.3238
v 3.8639 0.0118 0.3238
v 3.8639 0.4868 0.3238
v 3.0902 0.4868 0.3238
v 3.0902 0.0118 -0.2762
v 3.8639 0.0118 -0.2762
v 3.8639 0.4868 -0.2762
v 3.0902 0.4868 -0.2762
v 2.9424 0.0101 1.0192
v 3.6953 0.0101 1.1976
v 3.6953 0.4851 1.1976
v 2.9424 0.4851 1.0192
v 3.0807 0.0101 0.4353
v 3.8337 0.0101 0.6138
v 3.8337 0.4851 0.6138
v 3.0807 0.4851 0.4353
v 2.6532 0.0033 1.6425
v 3.3447 0.0033 1.9898
v 3.3447 0.4783 1.9898
v 2.6532 0.4783 1.6425
v 2.9225 0.0033 1.1063
v 3.6140 0.0033 1.4536
v 3.6140 0.4783 1.4536
v 2.9225 0.4783 1.1063
v 2.1992 0.0101 2.2060
v 2.7919 0.0101 2.7034
v 2.7919 0.4851 2.7034
v 2.1992 0.4851 2.2060
v 2.5848 0.0101 1.7464
v 3.1776 0.0101 2.2438
v 3.1776 0.4851 2.2438
v 2.5848 0.4851 1.7464
v 1.6328 0.0171 2.6654
v 2.0949 0.0171 3.2860
v 2.0949 0.4921 3.2860
v 1.6328 0.4921 2.6654
v 2.1141 0.0171 2.3071
v 2.5761 0.0171 2.9277
v 2.5761 0.4921 2.9277
v 2.1141 0.4921 2.3071
v -1.8317 0.0210 2.5559
v -2.2185 0.0210 3.2260
v -2.2185 0.4960 3.2260
v -1.8317 0.4960 2.5559
v -1.3120 0.0210 2.8559
v -1.6989 0.0210 3.5260
v -1.6989 0.4960 3.5260
v -1.3120 0.4960 2.8559
v -2.3315 0.0139 2.0554
v -2.8625 0.0139 2.6182
v -2.8625 0.4889 2.6182
v -2.3315 0.4889 2.0554
v -1.8951 0.0139 2.4671
v -2.4261 0.0139 3.0299
v -2.4261 0.4889 3.0299
v -1.8951 0.4889 2.4671
v -2.7539 0.0122 1.4630
v -3.4003 0.0122 1.8882
v -3.4003 0.4872 1.8882
v -2.7539 0.4872 1.4630
v -2.4242 0.0122 1.9643
v -3.0706 0.0122 2.3895
v -3.0706 0.4872 2.3895
v -2.4242 0.4872 1.9643
v -3.0317 0.0178 0.7662
v -3.7588 0.0178 1.0309
v -3.7588 0.4928 1.0309
v -3.0317 0.4928 0.7662
v -2.8265 0.0178 1.3300
v -3.5536 0.0178 1.5947
v -3.5536 0.4928 1.5947
v -2.8265 0.4928 1.3300
v -3.1417 0.0135 0.0493
v -3.9102 0.0135 0.1392
v -3.9102 0.4885 0.1392
v -3.1417 0.4885 0.0493
v -3.0720 0.0135 0.6453
v -3.8406 0.0135 0.7351
v -3.8406 0.4885 0.7351
v -3.0720 0.4885 0.6453
v -3.0567 0.0221 -0.6712
v -3.8253 0.0221 -0.7611
v -3.8253 0.4971 -0.7611
v -3.0567 0.4971 -0.6712
v -3.1264 0.0221 -0.0753
v -3.8949 0.0221 -0.1651
v -3.8949 0.4971 -0.1651
v -3.1264 0.4971 -0.0753
v -2.8096 0.0113 -1.3653
v -3.5367 0.0113 -1.6299
v -3.5367 0.4863 -1.6299
v -2.8096 0.4863 -1.3653
v -3.0148 0.0113 -0.8015
v -3.7419 0.0113 -1.0661
v -3.7419 0.4863 -1.0661
v -3.0148 0.4863 -0.8015
v -2.4431 0.0131 -1.9739
v -3.0896 0.0131 -2.3991
v -3.0896 0.4881 -2.3991
v -2.4431 0.4881 -1.9739
v -2.7728 0.0131 -1.4727
v -3.4193 0.0131 -1.8978
v -3.4193 0.4881 -1.8978
v -2.7728 0.4881 -1.4727
v -1.9176 0.0157 -2.4518
v -2.4486 0.0157 -3.0146
v -2.4486 0.4907 -3.0146
v -1.9176 0.4907 -2.4518
v -2.3540 0.0157 -2.0401
v -2.8850 0.0157 -2.6029
v -2.8850 0.4907 -2.6029
v -2.3540 0.4907 -2.0401
v -1.2943 0.0079 -2.8469
v -1.6811 0.0079 -3.5170
v -1.6811 0.4829 -3.5170
v -1.2943 0.4829 -2.8469
v -1.8139 0.0079 -2.5469
v -2.2008 0.0079 -3.2170
v -2.2008 0.4829 -3.2170
v -1.8139 0.4829 -2.5469
v -0.6133 0.0135 -3.0825
v -0.8352 0.0135 -3.8238
v -0.8352 0.4885 -3.8238
v -0.6133 0.4885 -3.0825
v -1.1881 0.0135 -2.9105
v -1.4100 0.0135 -3.6517
v -1.4100 0.4885 -3.6517
v -1.1881 0.4885 -2.9105
v 0.1174 0.0179 -3.1318
v 0.0724 0.0179 -3.9043
v 0.0724 0.4929 -3.9043
v 0.1174 0.4929 -3.1318
v -0.4816 0.0179 -3.0969
v -0.5266 0.0179 -3.8694
v -0.5266 0.4929 -3.8694
v -0.4816 0.4929 -3.0969
v 0.8408 0.0078 -3.0316
v 0.9751 0.0078 -3.7936
v 0.9751 0.4828 -3.7936
v 0.8408 0.4828 -3.0316
v 0.2499 0.0078 -3.1357
v 0.3843 0.0078 -3.8978
v 0.3843 0.4828 -3.8978
v 0.2499 0.4828 -3.1357
v 1.4984 0.0126 -2.7245
v 1.8048 0.0126 -3.4350
v 1.8048 0.4876 -3.4350
v 1.4984 0.4876 -2.7245
v 0.9474 0.0126 -2.9622
v 1.2539 0.0126 -3.6727
v 1.2539 0.4876 -3.6727
v 0.9474 0.4876 -2.9622
v 2.0761 0.0225 -2.3127
v 2.5382 0.0225 -2.9334
v 2.5382 0.4975 -2.9334
v 2.0761 0.4975 -2.3127
v 1.5948 0.0225 -2.6710
v 2.0569 0.0225 -3.2917
v 2.0569 0.4975 -3.2917
v 1.5948 0.4975 -2.6710
v 2.5549 0.0179 -1.7928
v 3.1476 0.0179 -2.2902
v 3.1476 0.4929 -2.2902
v 2.5549 0.4929 -1.7928
v 2.1692 0.0179 -2.2524
v 2.7619 0.0179 -2.7498
v 2.7619 0.4929 -2.7498
v 2.1692 0.4929 -2.2524
v 2.8977 0.0123 -1.1463
v 3.5891 0.0123 -1.4936
v 3.5891 0.4873 -1.4936
v 2.8977 0.4873 -1.1463
v 2.6284 0.0123 -1.6825
v 3.3199 0.0123 -2.0298
v 3.3199 0.4873 -2.0298
v 2.6284 0.4873 -1.6825
v 3.0975 0.0179 -0.4015
v 3.8504 0.0179 -0.5800
v 3.8504 0.4929 -0.5800
v 3.0975 0.4929 -0.4015
v 2.9591 0.0179 -0.9854
v 3.7120 0.0179 -1.1638
v 3.7120 0.4929 -1.1638
v 2.9591 0.4929 -0.9854
v 3.1076 0.6168 0.3199
v 3.8806 0.7706 0.3199
v 3.7879 1.2364 0.3199
v 3.0150 1.0827 0.3199
v 3.1076 0.6168 -0.2801
v 3.8806 0.7706 -0.2801
v 3.7879 1.2364 -0.2801
v 3.0150 1.0827 -0.2801
v 2.9040 0.6311 1.0349
v 3.6553 0.7761 1.2235
v 3.5707 1.2430 1.2018
v 2.8194 1.0980 1.0132
v 3.0502 0.6306 0.4529
v 3.8015 0.7756 0.6415
v 3.7169 1.2425 0.6199
v 2.9655 1.0975 0.4313
v 2.6028 0.6454 1.7113
v 3.2901 0.7661 2.0776
v 3.2281 1.2355 2.0392
v 2.5408 1.1147 1.6730
v 2.8857 0.6396 1.1823
v 3.5730 0.7603 1.5485
v 3.5110 1.2296 1.5102
v 2.8237 1.1089 1.1439
v 2.0665 0.6647 2.2412
v 2.6500 0.7511 2.7638
v 2.6215 1.2230 2.7176
v 2.0380 1.1366 2.1951
v 2.4682 0.6454 1.7959
v 3.0517 0.7318 2.3185
v 3.0232 1.2037 2.2723
v 2.4397 1.1173 1.7497
v 1.4851 0.6991 2.6934
v 1.9300 0.7490 3.3419
v 1.9403 1.2219 3.2985
v 1.4954 1.1720 2.6499
v 1.9801 0.6574 2.3570
v 2.4250 0.7073 3.0055
v 2.4354 1.1802 2.9621
v 1.9904 1.1303 2.3135
v -2.0146 0.7545 2.3342
v -2.4595 0.8044 2.9827
v -2.3449 1.2633 3.0261
v -1.9000 1.2134 2.3776
v -1.5411 0.6043 2.6706
v -1.9860 0.6542 3.3191
v -1.8713 1.1131 3.3625
v -1.4264 1.0632 2.7140
v -2.5032 0.7351 1.7628
v -3.0867 0.8215 2.2854
v -2.9773 1.2814 2.3316
v -2.3938 1.1950 1.8090
v -2.1244 0.6003 2.2081
v -2.7079 0.6867 2.7307
v -2.5985 1.1466 2.7769
v -2.0149 1.0602 2.2543
v -2.8663 0.6877 1.1399
v -3.5536 0.8084 1.5061
v -3.4520 1.2708 1.5444
v -2.7647 1.1501 1.1782
v -2.6023 0.5858 1.6689
v -3.2896 0.7065 2.0352
v -3.1880 1.1689 2.0735
v -2.5007 1.0482 1.7073
v -3.0482 0.6627 0.4095
v -3.7996 0.8077 0.5981
v -3.7044 1.2726 0.6198
v -2.9531 1.1276 0.4312
v -2.9127 0.6079 0.9915
v -3.6641 0.7529 1.1801
v -3.5689 1.2177 1.2017
v -2.8176 1.0727 1.0131
v -3.0683 0.6220 -0.2772
v -3.8413 0.7757 -0.2772
v -3.7486 1.2416 -0.2772
v -2.9757 1.0878 -0.2772
v -3.0683 0.6220 0.3228
v -3.8413 0.7757 0.3228
v -3.7486 1.2416 0.3228
v -2.9757 1.0878 0.3228
v -2.9399 0.5917 -1.0087
v -3.6912 0.7367 -1.1973
v -3.5960 1.2015 -1.2190
v -2.8447 1.0565 -1.0304
v -3.0754 0.6465 -0.4268
v -3.8267 0.7915 -0.6154
v -3.7315 1.2564 -0.6371
v -2.9802 1.1114 -0.4485
v -2.5955 0.5995 -1.6335
v -3.2828 0.7202 -1.9998
v -3.1812 1.1826 -2.0381
v -2.4939 1.0619 -1.6718
v -2.8596 0.7014 -1.1045
v -3.5469 0.8221 -1.4707
v -3.4452 1.2845 -1.5090
v -2.7579 1.1638 -1.1428
v -2.1228 0.5865 -2.2092
v -2.7064 0.6729 -2.7318
v -2.5970 1.1328 -2.7779
v -2.0134 1.0464 -2.2553
v -2.5017 0.7213 -1.7639
v -3.0852 0.8077 -2.2865
v -2.9758 1.2676 -2.3326
v -2.3923 1.1812 -1.8100
v -1.5561 0.5968 -2.6566
v -2.0010 0.6466 -3.3051
v -1.8863 1.1055 -3.3485
v -1.4414 1.0557 -2.7000
v -2.0296 0.7470 -2.3202
v -2.4745 0.7968 -2.9687
v -2.3598 1.2557 -3.0122
v -1.9149 1.2059 -2.3636
v -0.8473 0.6213 -2.9511
v -1.1261 0.6407 -3.6880
v -1.0127 1.1010 -3.7187
v -0.7339 1.0815 -2.9819
v -1.3899 0.7689 -2.7419
v -1.6687 0.7884 -3.4788
v -1.5553 1.2486 -3.5095
v -1.2765 1.2292 -2.7727
v -0.1446 0.6442 -3.0243
v -0.2396 0.6464 -3.8067
v -0.1373 1.1101 -3.8178
v -0.0423 1.1079 -3.0354
v -0.7261 0.7742 -2.9534
v -0.8210 0.7764 -3.7357
v -0.7187 1.2401 -3.7468
v -0.6237 1.2379 -2.9645
v 0.6338 0.6418 -2.9847
v 0.7288 0.6440 -3.7670
v 0.8090 1.1120 -3.7559
v 0.7141 1.1098 -2.9736
v 0.0469 0.7441 -3.0556
v 0.1418 0.7464 -3.8380
v 0.2221 1.2144 -3.8269
v 0.1271 1.2122 -3.0445
v 1.3166 0.6508 -2.7282
v 1.5954 0.6702 -3.4651
v 1.6438 1.1417 -3.4343
v 1.3650 1.1223 -2.6974
v 0.7588 0.7217 -2.9374
v 1.0375 0.7411 -3.6743
v 1.0859 1.2126 -3.6435
v 0.8072 1.1932 -2.9066
v 1.9686 0.6580 -2.3550
v 2.4135 0.7078 -3.0036
v 2.4239 1.1807 -2.9602
v 1.9790 1.1309 -2.3116
v 1.4736 0.6997 -2.6914
v 1.9185 0.7495 -3.3400
v 1.9288 1.2224 -3.2966
v 1.4839 1.1726 -2.6480
v 2.4974 0.6359 -1.7924
v 3.0809 0.7223 -2.3150
v 3.0524 1.1942 -2.2689
v 2.4689 1.1078 -1.7463
v 2.0958 0.6552 -2.2377
v 2.6793 0.7416 -2.7603
v 2.6508 1.2135 -2.7142
v 2.0672 1.1271 -2.1916
v 2.8765 0.6433 -1.1866
v 3.5638 0.7640 -1.5528
v 3.5018 1.2333 -1.5145
v 2.8145 1.1126 -1.1482
v 2.5936 0.6491 -1.7156
v 3.2809 0.7698 -2.0819
v 3.2189 1.2391 -2.0435
v 2.5316 1.1184 -1.6773
v 3.0683 0.6183 -0.4620
v 3.8196 0.7633 -0.6506
v 3.7349 1.2302 -0.6290
v 2.9836 1.0852 -0.4404
v 2.9221 0.6188 -1.0440
v 3.6734 0.7638 -1.2326
v 3.5888 1.2306 -1.2109
v 2.8374 1.0857 -1.0223
v 2.9708 1.2308 0.3196
v 3.6841 1.5263 0.3196
v 3.5023 1.9651 0.3196
v 2.7890 1.6697 0.3196
v 2.9708 1.2308 -0.2804
v 3.6841 1.5263 -0.2804
v 3.5023 1.9651 -0.2804
v 2.7890 1.6697 -0.2804
v 2.7768 1.2217 1.0408
v 3.4711 1.4993 1.2328
v 3.3063 1.9426 1.1880
v 2.6120 1.6650 0.9960
v 2.9364 1.2225 0.4625
v 3.6307 1.5002 0.6545
v 3.4659 1.9434 0.6096
v 2.7716 1.6658 0.4176
v 2.4023 1.2586 1.6549
v 3.0392 1.4869 2.0268
v 2.9223 1.9406 1.9486
v 2.2854 1.7123 1.5766
v 2.7076 1.2482 1.1385
v 3.3445 1.4765 1.5104
v 3.2276 1.9301 1.4322
v 2.5908 1.7019 1.0602
v 1.9170 1.3029 2.2091
v 2.4569 1.4618 2.7376
v 2.4104 1.9255 2.6456
v 1.8705 1.7666 2.1171
v 2.3418 1.2619 1.7874
v 2.8817 1.4208 2.3159
v 2.8353 1.8845 2.2240
v 2.2954 1.7255 1.6954
v 1.2427 1.3489 2.5910
v 1.6473 1.4353 3.2429
v 1.6811 1.9018 3.1600
v 1.2766 1.8154 2.5082
v 1.7519 1.2579 2.2870
v 2.1565 1.3443 2.9389
v 2.1904 1.8108 2.8560
v 1.7858 1.7244 2.2042
v -2.1208 1.4634 1.9658
v -2.5975 1.5853 2.5607
v -2.3796 1.9975 2.6509
v -1.9028 1.8756 2.0560
v -1.7375 1.1808 2.3309
v -2.2143 1.3027 2.9258
v -1.9963 1.7150 3.0160
v -1.5195 1.5931 2.4211
v -2.5802 1.3941 1.3735
v -3.1736 1.5893 1.8273
v -2.9685 2.0086 1.9152
v -2.3751 1.8135 1.4614
v -2.2970 1.1565 1.8460
v -2.8903 1.3516 2.2998
v -2.6852 1.7709 2.3877
v -2.0919 1.5758 1.9339
v -2.8354 1.3208 0.7611
v -3.5059 1.5771 1.0453
v -3.3145 2.0071 1.1089
v -2.6440 1.7508 0.8247
v -2.6621 1.1620 1.3131
v -3.3326 1.4183 1.5973
v -3.1412 1.8483 1.6610
v -2.4707 1.5920 1.3767
v -2.9526 1.2533 0.0442
v -3.6612 1.5442 0.1410
v -3.4783 1.9820 0.1642
v -2.7697 1.6910 0.0674
v -2.8943 1.1974 0.6388
v -3.6029 1.4884 0.7355
v -3.4200 1.9261 0.7587
v -2.7114 1.6352 0.6619
v -2.9411 1.2009 -0.6262
v -3.6496 1.4919 -0.7229
v -3.4667 1.9296 -0.7461
v -2.7582 1.6387 -0.6493
v -2.9993 1.2568 -0.0316
v -3.7079 1.5477 -0.1284
v -3.5250 1.9854 -0.1516
v -2.8164 1.6945 -0.0548
v -2.6760 1.1663 -1.2688
v -3.3465 1.4226 -1.5530
v -3.1551 1.8527 -1.6167
v -2.4846 1.5964 -1.3324
v -2.8493 1.3251 -0.7168
v -3.5198 1.5814 -1.0010
v -3.3284 2.0115 -1.0646
v -2.6579 1.7552 -0.7804
v -2.2934 1.1664 -1.8490
v -2.8868 1.3615 -2.3028
v -2.6817 1.7808 -2.3907
v -2.0883 1.5857 -1.9369
v -2.5767 1.4041 -1.3765
v -3.1701 1.5992 -1.8303
v -2.9649 2.0185 -1.9182
v -2.3716 1.8234 -1.4644
v -1.7312 1.1848 -2.3543
v -2.2080 1.3067 -2.9491
v -1.9900 1.7190 -3.0394
v -1.5133 1.5971 -2.4445
v -2.1145 1.4673 -1.9892
v -2.5913 1.5892 -2.5841
v -2.3733 2.0015 -2.6743
v -1.8965 1.8796 -2.0794
v -1.1128 1.2009 -2.6711
v -1.4370 1.2556 -3.3697
v -1.2154 1.6699 -3.4400
v -0.8913 1.6152 -2.7415
v -1.5800 1.4915 -2.4316
v -1.9041 1.5462 -3.1302
v -1.6826 1.9604 -3.2005
v -1.3584 1.9057 -2.5020
v -0.3879 1.2328 -2.8339
v -0.5322 1.2435 -3.5923
v -0.3248 1.6695 -3.6258
v -0.1805 1.6588 -2.8674
v -0.9159 1.4981 -2.7298
v -1.0602 1.5087 -3.4881
v -0.8527 1.9347 -3.5216
v -0.7085 1.9241 -2.7633
v 0.3915 1.2587 -2.8186
v 0.4400 1.2599 -3.5891
v 0.6102 1.7032 -3.5778
v 0.5617 1.7020 -2.8072
v -0.1674 1.4741 -2.8534
v -0.1189 1.4753 -3.6240
v 0.0513 1.9187 -3.6126
v 0.0028 1.9175 -2.8420
v 1.1198 1.2649 -2.6377
v 1.3567 1.2937 -3.3720
v 1.4667 1.7527 -3.3185
v 1.2299 1.7238 -2.5842
v 0.5659 1.4178 -2.8104
v 0.8028 1.4467 -3.5446
v 0.9128 1.9057 -3.4911
v 0.6760 1.8768 -2.7568
v 1.7494 1.2645 -2.3083
v 2.1540 1.3509 -2.9601
v 2.1878 1.8174 -2.8773
v 1.7833 1.7309 -2.2254
v 1.2402 1.3554 -2.6123
v 1.6447 1.4418 -3.2641
v 1.6786 1.9083 -3.1813
v 1.2740 1.8219 -2.5294
v 2.3012 1.2585 -1.7788
v 2.8411 1.4174 -2.3073
v 2.7946 1.8811 -2.2154
v 2.2547 1.7221 -1.6869
v 1.8763 1.2995 -2.2005
v 2.4162 1.4584 -2.7290
v 2.3698 1.9221 -2.6370
v 1.8299 1.7632 -2.1085
v 2.7075 1.2382 -1.1404
v 3.3444 1.4664 -1.5123
v 3.2275 1.9201 -1.4341
v 2.5906 1.6919 -1.0621
v 2.4022 1.2486 -1.6568
v 3.0391 1.4769 -2.0287
v 2.9222 1.9305 -1.9505
v 2.2853 1.7023 -1.5785
v 2.9390 1.2236 -0.4532
v 3.6334 1.5012 -0.6452
v 3.4685 1.9444 -0.6004
v 2.7742 1.6668 -0.4084
v 2.7794 1.2228 -1.0316
v 3.4737 1.5004 -1.2236
v 3.3089 1.9436 -1.1787
v 2.6146 1.6660 -0.9867
v 2.7247 1.7843 0.2975
v 3.3812 2.2230 0.2975
v 3.1173 2.6179 0.2975
v 2.4608 2.1793 0.2975
v 2.7247 1.7843 -0.3025
v 3.3812 2.2230 -0.3025
v 3.1173 2.6179 -0.3025
v 2.4608 2.1793 -0.3025
v 2.5025 1.7784 1.0313
v 3.1423 2.1841 1.2538
v 2.9101 2.5916 1.1785
v 2.2703 2.1858 0.9560
v 2.6964 1.7839 0.4635
v 3.3362 2.1897 0.6860
v 3.1040 2.5972 0.6107
v 2.4642 2.1914 0.3882
v 2.0276 1.8211 1.6778
v 2.6119 2.1369 2.1047
v 2.4681 2.5720 1.9796
v 1.8838 2.2562 1.5527
v 2.3879 1.8023 1.1984
v 2.9722 2.1181 1.6253
v 2.8285 2.5532 1.5002
v 2.2441 2.2374 1.0733
v 1.4389 1.9051 2.1292
v 1.9179 2.0996 2.7259
v 1.8998 2.5550 2.5919
v 1.4208 2.3604 1.9952
v 1.9152 1.8197 1.7745
v 2.3943 2.0142 2.3713
v 2.3762 2.4696 2.2373
v 1.8972 2.2750 1.6406
v 0.7330 2.0205 2.4585
v 1.0513 2.1000 3.1768
v 1.1663 2.5497 3.0760
v 0.8481 2.4702 2.3578
v 1.2625 1.8370 2.2442
v 1.5808 1.9164 2.9624
v 1.6958 2.3661 2.8617
v 1.3776 2.2867 2.1435
v -0.0298 2.1275 2.5363
v 0.0821 2.1370 3.3178
v 0.3069 2.5538 3.2806
v 0.1949 2.5444 2.4991
v 0.4919 1.8399 2.4650
v 0.6038 1.8493 3.2466
v 0.8286 2.2661 3.2093
v 0.7166 2.2567 2.4278
v -0.7608 2.1930 2.4519
v -0.8728 2.2024 3.2334
v -0.5817 2.5759 3.2706
v -0.4697 2.5665 2.4891
v -0.2945 1.8223 2.5232
v -0.4064 1.8317 3.3047
v -0.1153 2.2052 3.3419
v -0.0033 2.1958 2.5604
v -1.4091 2.1850 2.1068
v -1.7273 2.2644 2.8250
v -1.4143 2.6072 2.9257
v -1.0961 2.5278 2.2075
v -1.0280 1.7741 2.3211
v -1.3462 1.8535 3.0393
v -1.0332 2.1964 3.1400
v -0.7150 2.1169 2.4218
v -1.9790 2.1225 1.6322
v -2.4581 2.3171 2.2290
v -2.1536 2.6561 2.3629
v -1.6745 2.4616 1.7662
v -1.6970 1.7292 1.9868
v -2.1761 1.9237 2.5836
v -1.8716 2.2628 2.7175
v -1.3925 2.0682 2.1208
v -2.3698 2.0161 1.0771
v -2.9541 2.3320 1.5040
v -2.6689 2.6906 1.6291
v -2.0845 2.3747 1.2022
v -2.1881 1.7044 1.5565
v -2.7724 2.0202 1.9834
v -2.4872 2.3788 2.1085
v -1.9028 2.0630 1.6816
v -2.6487 1.8892 0.3839
v -3.2885 2.2950 0.6064
v -3.0189 2.6788 0.6817
v -2.3791 2.2730 0.4592
v -2.5610 1.7162 0.9517
v -3.2008 2.1220 1.1742
v -2.9312 2.5058 1.2494
v -2.2914 2.1000 1.0270
v -2.7267 1.7759 -0.2875
v -3.3832 2.2146 -0.2875
v -3.1193 2.6096 -0.2875
v -2.4628 2.1709 -0.2875
v -2.7267 1.7759 0.3125
v -3.3832 2.2146 0.3125
v -3.1193 2.6096 0.3125
v -2.4628 2.1709 0.3125
v -2.5643 1.7161 -0.9579
v -3.2041 2.1219 -1.1803
v -2.9345 2.5056 -1.2556
v -2.2948 2.0999 -1.0332
v -2.6520 1.8891 -0.3901
v -3.2918 2.2949 -0.6126
v -3.0222 2.6786 -0.6879
v -2.3825 2.2729 -0.4654
v -2.2181 1.7060 -1.5283
v -2.8024 2.0219 -1.9551
v -2.5172 2.3805 -2.0803
v -1.9329 2.0646 -1.6534
v -2.3998 2.0178 -1.0489
v -2.9841 2.3336 -1.4758
v -2.6989 2.6922 -1.6009
v -2.1145 2.3764 -1.1740
v -1.7002 1.7375 -2.0270
v -2.1793 1.9320 -2.6237
v -1.8748 2.2711 -2.7576
v -1.3957 2.0765 -2.1609
v -1.9822 2.1309 -1.6723
v -2.4613 2.3254 -2.2691
v -2.1567 2.6644 -2.4030
v -1.6777 2.4699 -1.8063
v -1.0066 1.7716 -2.3639
v -1.3248 1.8511 -3.0821
v -1.0119 2.1939 -3.1829
v -0.6936 2.1144 -2.4646
v -1.3877 2.1825 -2.1496
v -1.7059 2.2620 -2.8678
v -1.3930 2.6048 -2.9686
v -1.0747 2.5253 -2.2503
v -0.2785 1.8207 -2.5122
v -0.3904 1.8301 -3.2937
v -0.0993 2.2036 -3.3309
v 0.0127 2.1942 -2.5494
v -0.7448 2.1914 -2.4409
v -0.8568 2.2008 -3.2224
v -0.5656 2.5743 -3.2597
v -0.4537 2.5649 -2.4781
v 0.5312 1.8375 -2.4954
v 0.6432 1.8469 -3.2770
v 0.8679 2.2637 -3.2397
v 0.7560 2.2543 -2.4582
v 0.0095 2.1251 -2.5667
v 0.1215 2.1345 -3.3482
v 0.3462 2.5514 -3.3110
v 0.2343 2.5419 -2.5295
v 1.2574 1.8457 -2.2537
v 1.5756 1.9252 -2.9719
v 1.6907 2.3749 -2.8712
v 1.3725 2.2954 -2.1530
v 0.7279 2.0292 -2.4680
v 1.0461 2.1087 -3.1862
v 1.1612 2.5584 -3.0855
v 0.8430 2.4789 -2.3673
v 1.8963 1.8255 -1.7754
v 2.3754 2.0200 -2.3722
v 2.3573 2.4754 -2.2382
v 1.8783 2.2809 -1.6415
v 1.4199 1.9109 -2.1301
v 1.8990 2.1054 -2.7268
v 1.8809 2.5608 -2.5928
v 1.4019 2.3663 -1.9961
v 2.4291 1.8064 -1.1623
v 3.0134 2.1223 -1.5892
v 2.8696 2.5574 -1.4640
v 2.2853 2.2415 -1.0372
v 2.0687 1.8252 -1.6416
v 2.6531 2.1411 -2.0685
v 2.5093 2.5761 -1.9434
v 1.9250 2.2603 -1.5165
v 2.6832 1.7861 -0.4668
v 3.3229 2.1918 -0.6892
v 3.0907 2.5993 -0.6139
v 2.4509 2.1935 -0.3915
v 2.4893 1.7805 -1.0346
v 3.1291 2.1862 -1.2570
v 2.8968 2.5937 -1.1817
v 2.2570 2.1880 -0.9593
v 2.3844 2.2917 0.3112
v 2.9342 2.8415 0.3112
v 2.5983 3.1774 0.3112
v 2.0486 2.6276 0.3112
v 2.3844 2.2917 -0.2888
v 2.9342 2.8415 -0.2888
v 2.5983 3.1774 -0.2888
v 2.0486 2.6276 -0.2888
v 2.0876 2.2866 1.0186
v 2.6293 2.7840 1.2711
v 2.3470 3.1489 1.1577
v 1.8054 2.6515 0.9053
v 2.3289 2.3027 0.4695
v 2.8705 2.8001 0.7219
v 2.5883 3.1649 0.6086
v 2.0466 2.6675 0.3561
v 1.5415 2.3589 1.5696
v 2.0409 2.7153 2.0472
v 1.9067 3.1365 1.8733
v 1.4072 2.7801 1.3957
v 1.9689 2.3220 1.1502
v 2.4684 2.6784 1.6277
v 2.3341 3.0995 1.4538
v 1.8347 2.7431 0.9763
v 0.8902 2.5075 1.9624
v 1.2768 2.6846 2.6133
v 1.3412 3.1277 2.4545
v 0.9545 2.9506 1.8036
v 1.4044 2.3397 1.7026
v 1.7910 2.5168 2.3535
v 1.8553 2.9599 2.1948
v 1.4687 2.7828 1.5439
v 0.1637 2.6615 2.0926
v 0.3510 2.6981 2.8463
v 0.5969 3.0965 2.7659
v 0.4096 3.0599 2.0122
v 0.6562 2.3359 1.9860
v 0.8435 2.3725 2.7397
v 1.0895 2.7709 2.6593
v 0.9021 2.7343 1.9056
v -0.5316 2.7902 2.0363
v -0.5957 2.7943 2.8111
v -0.2407 3.1088 2.8388
v -0.1766 3.1046 2.0639
v -0.1360 2.3405 2.0714
v -0.2000 2.3446 2.8462
v 0.1549 2.6591 2.8739
v 0.2190 2.6549 2.0990
v -1.1831 2.8117 1.7567
v -1.4800 2.9086 2.4688
v -1.0967 3.1594 2.5945
v -0.7998 3.0625 1.8824
v -0.9128 2.3077 1.9381
v -1.2097 2.4046 2.6501
v -0.8264 2.6554 2.7758
v -0.5295 2.5584 2.0638
v -1.7029 2.6956 1.2552
v -2.1567 2.9627 1.8272
v -1.7904 3.2088 2.0029
v -1.3366 2.9417 1.4309
v -1.5504 2.2256 1.5955
v -2.0043 2.4927 2.1676
v -1.6380 2.7388 2.3433
v -1.1841 2.4717 1.7713
v -2.1136 2.5278 0.6951
v -2.6407 2.9635 1.0651
v -2.2953 3.2517 1.2177
v -1.7683 2.8160 0.8476
v -2.0483 2.1896 1.1863
v -2.5753 2.6252 1.5564
v -2.2300 2.9134 1.7089
v -1.7029 2.4778 1.3389
v -2.3635 2.3532 0.0287
v -2.9116 2.8896 0.1567
v -2.5749 3.2192 0.2171
v -2.0268 2.6827 0.0891
v -2.3476 2.2294 0.6156
v -2.8957 2.7658 0.7436
v -2.5590 3.0954 0.8040
v -2.0109 2.5590 0.6760
v -2.3314 2.2307 -0.6311
v -2.8795 2.7672 -0.7591
v -2.5428 3.0967 -0.8195
v -1.9947 2.5603 -0.6915
v -2.3473 2.3545 -0.0442
v -2.8953 2.8909 -0.1722
v -2.5586 3.2205 -0.2326
v -2.0106 2.6841 -0.1046
v -2.0483 2.1917 -1.1428
v -2.5754 2.6273 -1.5129
v -2.2300 2.9156 -1.6654
v -1.7030 2.4799 -1.2954
v -2.1137 2.5299 -0.6516
v -2.6407 2.9656 -1.0216
v -2.2954 3.2538 -1.1742
v -1.7683 2.8182 -0.8041
v -1.5443 2.2320 -1.6098
v -1.9982 2.4991 -2.1818
v -1.6319 2.7452 -2.3575
v -1.1780 2.4781 -1.7855
v -1.6968 2.7020 -1.2694
v -2.1506 2.9691 -1.8414
v -1.7843 3.2152 -2.0172
v -1.3305 2.9481 -1.4451
v -0.8824 2.3073 -1.9341
v -1.1793 2.4042 -2.6461
v -0.7959 2.6550 -2.7718
v -0.4990 2.5581 -2.0598
v -1.1527 2.8113 -1.7528
v -1.4496 2.9083 -2.4648
v -1.0663 3.1590 -2.5905
v -0.7693 3.0621 -1.8785
v -0.1762 2.3346 -2.1048
v -0.2403 2.3388 -2.8796
v 0.1146 2.6532 -2.9073
v 0.1787 2.6491 -2.1325
v -0.5719 2.7844 -2.0697
v -0.6359 2.7885 -2.8445
v -0.2810 3.1030 -2.8722
v -0.2169 3.0988 -2.0973
v 0.6238 2.3461 -2.0156
v 0.8111 2.3826 -2.7693
v 1.0570 2.7810 -2.6888
v 0.8697 2.7444 -1.9351
v 0.1312 2.6717 -2.1222
v 0.3185 2.7082 -2.8759
v 0.5644 3.1066 -2.7955
v 0.3771 3.0700 -2.0418
v 1.4017 2.3217 -1.6883
v 1.7884 2.4988 -2.3392
v 1.8527 2.9419 -2.1804
v 1.4661 2.7647 -1.5295
v 0.8876 2.4895 -1.9481
v 1.2742 2.6666 -2.5990
v 1.3386 3.1096 -2.4402
v 0.9519 2.9325 -1.7893
v 1.9816 2.3260 -1.1497
v 2.4810 2.6824 -1.6273
v 2.3468 3.1036 -1.4534
v 1.8473 2.7472 -0.9758
v 1.5542 2.3630 -1.5692
v 2.0536 2.7194 -2.0467
v 1.9194 3.1405 -1.8729
v 1.4199 2.7841 -1.3953
v 2.3336 2.3010 -0.4766
v 2.8753 2.7984 -0.7291
v 2.5930 3.1633 -0.6158
v 2.0514 2.6659 -0.3633
v 2.0924 2.2850 -1.0258
v 2.6341 2.7824 -1.2782
v 2.3518 3.1473 -1.1649
v 1.8102 2.6499 -0.9124
v 1.9516 2.7098 0.2889
v 2.3815 3.3531 0.2889
v 1.9866 3.6170 0.2889
v 1.5567 2.9737 0.2889
v 1.9516 2.7098 -0.3111
v 2.3815 3.3531 -0.3111
v 1.9866 3.6170 -0.3111
v 1.5567 2.9737 -0.3111
v 1.5270 2.6984 0.9471
v 1.9681 3.2507 1.2619
v 1.6730 3.5825 1.0932
v 1.2319 3.0302 0.7784
v 1.8496 2.7285 0.4421
v 2.2907 3.2808 0.7569
v 1.9956 3.6126 0.5881
v 1.5545 3.0603 0.2734
v 0.8470 2.8528 1.4342
v 1.2570 3.1689 2.0092
v 1.2271 3.5930 1.7974
v 0.8171 3.2768 1.2223
v 1.3544 2.7390 1.1349
v 1.7644 3.0552 1.7099
v 1.7345 3.4793 1.4981
v 1.3245 3.1631 0.9231
v 0.1092 3.1096 1.6143
v 0.3374 3.1810 2.3502
v 0.5995 3.5592 2.2322
v 0.3713 3.4877 1.4963
v 0.5772 2.7507 1.5040
v 0.8054 2.8222 2.2399
v 1.0676 3.2003 2.1219
v 0.8394 3.1289 1.3860
v -0.5215 3.3126 1.5337
v -0.6019 3.3209 2.3032
v -0.1854 3.5455 2.3443
v -0.1049 3.5372 1.5748
v -0.2400 2.7839 1.5688
v -0.3204 2.7922 2.3383
v 0.0961 3.0168 2.3795
v 0.1766 3.0085 1.6099
v -1.0710 3.2796 1.1467
v -1.4122 3.4620 1.8168
v -0.9918 3.5927 1.9953
v -0.6506 3.4103 1.3252
v -0.9811 2.7204 1.3447
v -1.3224 2.9027 2.0148
v -0.9020 3.0334 2.1933
v -0.5608 2.8511 1.5231
v -1.5498 3.0740 0.6284
v -1.9885 3.5205 1.0832
v -1.5978 3.6909 1.2929
v -1.1591 3.2443 0.8380
v -1.5762 2.6338 1.0352
v -2.0149 3.0803 1.4900
v -1.6242 3.2506 1.6997
v -1.1854 2.8041 1.2449
v -1.8481 2.8192 -0.0053
v -2.2820 3.4394 0.1555
v -1.8894 3.6896 0.2497
v -1.4555 3.0695 0.0888
v -1.8777 2.6494 0.5694
v -2.3116 3.2696 0.7303
v -1.9190 3.5198 0.8244
v -1.4851 2.8997 0.6636
v -1.9068 2.6365 -0.5464
v -2.3407 3.2567 -0.7073
v -1.9481 3.5070 -0.8015
v -1.5142 2.8868 -0.6406
v -1.8772 2.8064 0.0283
v -2.3111 3.4265 -0.1326
v -1.9185 3.6768 -0.2268
v -1.4846 3.0566 -0.0659
v -1.5826 2.6265 -1.0089
v -2.0214 3.0731 -1.4638
v -1.6306 3.2434 -1.6734
v -1.1919 2.7968 -1.2186
v -1.5563 3.0667 -0.6021
v -1.9950 3.5133 -1.0570
v -1.6043 3.6836 -1.2666
v -1.1656 3.2371 -0.8118
v -0.9482 2.7264 -1.3514
v -1.2894 2.9087 -2.0215
v -0.8691 3.0394 -2.2000
v -0.5279 2.8571 -1.5298
v -1.0381 3.2856 -1.1534
v -1.3793 3.4680 -1.8235
v -0.9589 3.5987 -2.0020
v -0.6177 3.4163 -1.3319
v -0.2300 2.7833 -1.5587
v -0.3104 2.7916 -2.3283
v 0.1061 3.0161 -2.3694
v 0.1866 3.0078 -1.5999
v -0.5115 3.3120 -1.5236
v -0.5919 3.3203 -2.2931
v -0.1754 3.5448 -2.3343
v -0.0949 3.5365 -1.5647
v 0.5929 2.7627 -1.5042
v 0.8211 2.8342 -2.2401
v 1.0832 3.2123 -2.1221
v 0.8550 3.1409 -1.3862
v 0.1249 3.1216 -1.6145
v 0.3531 3.1930 -2.3504
v 0.6152 3.5712 -2.2324
v 0.3870 3.4998 -1.4965
v 1.3735 2.7342 -1.1097
v 1.7835 3.0504 -1.6848
v 1.7536 3.4745 -1.4729
v 1.3436 3.1583 -0.8979
v 0.8660 2.8479 -1.4090
v 1.2760 3.1641 -1.9840
v 1.2461 3.5882 -1.7722
v 0.8361 3.2720 -1.1971
v 1.8542 2.7419 -0.4705
v 2.2953 3.2942 -0.7852
v 2.0003 3.6260 -0.6165
v 1.5591 3.0737 -0.3018
v 1.5316 2.7118 -0.9755
v 1.9728 3.2641 -1.2902
v 1.6777 3.5959 -1.1215
v 1.2365 3.0436 -0.8068
v 1.3923 3.0291 0.2931
v 1.6982 3.7677 0.2931
v 1.2594 3.9495 0.2931
v 0.9534 3.2109 0.2931
v 1.3923 3.0291 -0.3069
v 1.6982 3.7677 -0.3069
v 1.2594 3.9495 -0.3069
v 0.9534 3.2109 -0.3069
v 0.7698 3.0462 0.8494
v 1.1444 3.5735 1.3194
v 0.9496 3.9305 1.0740
v 0.5750 3.4032 0.6041
v 1.2393 3.0456 0.4758
v 1.6139 3.5729 0.9458
v 1.4191 3.9299 0.7004
v 1.0445 3.4027 0.2305
v -0.0483 3.4825 1.0084
v 0.1826 3.5705 1.7688
v 0.4890 3.9085 1.6366
v 0.2582 3.8205 0.8762
v 0.3762 3.0662 0.9277
v 0.6070 3.1541 1.6880
v 0.9135 3.4922 1.5559
v 0.6826 3.4042 0.7955
v -0.5279 3.7081 0.7724
v -0.7588 3.7960 1.5328
v -0.3051 3.8444 1.6650
v -0.0742 3.7565 0.9046
v -0.4881 3.1148 0.8532
v -0.7190 3.2028 1.6135
v -0.2653 3.2512 1.7457
v -0.0345 3.1632 0.9853
v -1.0147 3.4021 0.2195
v -1.3893 3.9294 0.6894
v -0.9880 3.9958 0.9348
v -0.6134 3.4686 0.4648
v -1.1697 2.9590 0.5931
v -1.5443 3.4863 1.0630
v -1.1431 3.5527 1.3084
v -0.7685 3.0254 0.8385
v -1.4201 3.0222 -0.3108
v -1.7261 3.7608 -0.3108
v -1.2872 3.9426 -0.3108
v -0.9813 3.2040 -0.3108
v -1.4201 3.0222 0.2892
v -1.7261 3.7608 0.2892
v -1.2872 3.9426 0.2892
v -0.9813 3.2040 0.2892
v -1.1498 2.9634 -0.5970
v -1.5244 3.4907 -1.0670
v -1.1231 3.5571 -1.3123
v -0.7485 3.0298 -0.8424
v -0.9947 3.4065 -0.2234
v -1.3693 3.9338 -0.6934
v -0.9680 4.0003 -0.9387
v -0.5934 3.4730 -0.4688
v -0.4815 3.1255 -0.8863
v -0.7123 3.2135 -1.6466
v -0.2587 3.2619 -1.7788
v -0.0278 3.1739 -1.0184
v -0.5213 3.7187 -0.8056
v -0.7521 3.8067 -1.5659
v -0.2984 3.8551 -1.6981
v -0.0676 3.7671 -0.9377
v 0.3475 3.0705 -0.9055
v 0.5783 3.1585 -1.6658
v 0.8847 3.4965 -1.5337
v 0.6539 3.4085 -0.7733
v -0.0770 3.4868 -0.9862
v 0.1539 3.5748 -1.7465
v 0.4603 3.9128 -1.6144
v 0.2294 3.8249 -0.8540
v 1.2302 3.0330 -0.5119
v 1.6048 3.5603 -0.9819
v 1.4100 3.9173 -0.7365
v 1.0354 3.3900 -0.2666
v 0.7607 3.0336 -0.8856
v 1.1353 3.5608 -1.3555
v 0.9405 3.9179 -1.1101
v 0.5659 3.3906 -0.6402
v 0.8323 3.2284 0.3094
v 0.9913 4.0279 0.3094
v 0.5254 4.1205 0.3094
v 0.3664 3.3210 0.3094
v 0.8323 3.2284 -0.2906
v 0.9913 4.0279 -0.2906
v 0.5254 4.1205 -0.2906
v 0.3664 3.3210 -0.2906
v -0.2727 3.7181 0.3528
v -0.0432 3.8219 1.1281
v 0.3032 4.1144 0.9864
v 0.0737 4.0106 0.2111
v 0.1015 3.2516 0.3045
v 0.3310 3.3554 1.0798
v 0.6774 3.6479 0.9381
v 0.4479 3.5441 0.1628
v -0.4726 3.6022 -0.1534
v -0.7647 4.1934 0.3258
v -0.3810 4.1579 0.6035
v -0.0890 3.5666 0.1244
v -0.7535 3.1916 0.1821
v -1.0456 3.7828 0.6612
v -0.6619 3.7473 0.9390
v -0.3699 3.1560 0.4598
v -0.7496 3.2071 -0.1882
v -1.0417 3.7983 -0.6673
v -0.6580 3.7628 -0.9451
v -0.3659 3.1715 -0.4660
v -0.4687 3.6177 0.1472
v -0.7608 4.2089 -0.3319
v -0.3771 4.1734 -0.6097
v -0.0850 3.5821 -0.1305
v 0.0854 3.2481 -0.3159
v 0.3149 3.3519 -1.0912
v 0.6613 3.6444 -0.9494
v 0.4318 3.5406 -0.1742
v -0.2888 3.7146 -0.3642
v -0.0593 3.8184 -1.1395
v 0.2871 4.1109 -0.9978
v 0.0576 4.0071 -0.2225
v 0.7000 0.0000 4.0500
v 1.3000 0.0000 4.0500
v 1.3000 0.4000 4.0500
v 0.7000 0.4000 4.0500
v 0.7000 0.0000 3.5500
v 1.3000 0.0000 3.5500
v 1.3000 0.4000 3.5500
v 0.7000 0.4000 3.5500
v 0.6839 0.4496 4.0500
v 1.1693 0.8023 4.0500
v 0.9342 1.1259 4.0500
v 0.4488 0.7733 4.0500
v 0.6839 0.4496 3.5500
v 1.1693 0.8023 3.5500
v 0.9342 1.1259 3.5500
v 0.4488 0.7733 3.5500
v 0.4065 0.8039 4.0500
v 0.5919 1.3746 4.0500
v 0.2115 1.4982 4.0500
v 0.0261 0.9275 4.0500
v 0.4065 0.8039 3.5500
v 0.5919 1.3746 3.5500
v 0.2115 1.4982 3.5500
v 0.0261 0.9275 3.5500
v -0.0261 0.9275 4.0500
v -0.2115 1.4982 4.0500
v -0.5919 1.3746 4.0500
v -0.4065 0.8039 4.0500
v -0.0261 0.9275 3.5500
v -0.2115 1.4982 3.5500
v -0.5919 1.3746 3.5500
v -0.4065 0.8039 3.5500
v -0.4488 0.7733 4.0500
v -0.9342 1.1259 4.0500
v -1.1693 0.8023 4.0500
v -0.6839 0.4496 4.0500
v -0.4488 0.7733 3.5500
v -0.9342 1.1259 3.5500
v -1.1693 0.8023 3.5500
v -0.6839 0.4496 3.5500
v -0.7000 0.4000 4.0500
v -1.3000 0.4000 4.0500
v -1.3000 0.0000 4.0500
v -0.7000 0.0000 4.0500
v -0.7000 0.4000 3.5500
v -1.3000 0.4000 3.5500
v -1.3000 0.0000 3.5500
v -0.7000 0.0000 3.5500
v 0.7000 0.0000 4.6500
v 1.3000 0.0000 4.6500
v 1.3000 0.4000 4.6500
v 0.7000 0.4000 4.6500
v 0.7000 0.0000 4.1500
v 1.3000 0.0000 4.1500
v 1.3000 0.4000 4.1500
v 0.7000 0.4000 4.1500
v 0.6839 0.4496 4.6500
v 1.1693 0.8023 4.6500
v 0.9342 1.1259 4.6500
v 0.4488 0.7733 4.6500
v 0.6839 0.4496 4.1500
v 1.1693 0.8023 4.1500
v 0.9342 1.1259 4.1500
v 0.4488 0.7733 4.1500
v 0.4065 0.8039 4.6500
v 0.5919 1.3746 4.6500
v 0.2115 1.4982 4.6500
v 0.0261 0.9275 4.6500
v 0.4065 0.8039 4.1500
v 0.5919 1.3746 4.1500
v 0.2115 1.4982 4.1500
v 0.0261 0.9275 4.1500
v -0.0261 0.9275 4.6500
v -0.2115 1.4982 4.6500
v -0.5919 1.3746 4.6500
v -0.4065 0.8039 4.6500
v -0.0261 0.9275 4.1500
v -0.2115 1.4982 4.1500
v -0.5919 1.3746 4.1500
v -0.4065 0.8039 4.1500
v -0.4488 0.7733 4.6500
v -0.9342 1.1259 4.6500
v -1.1693 0.8023 4.6500
v -0.6839 0.4496 4.6500
v -0.4488 0.7733 4.1500
v -0.9342 1.1259 4.1500
v -1.1693 0.8023 4.1500
v -0.6839 0.4496 4.1500
v -0.7000 0.4000 4.6500
v -1.3000 0.4000 4.6500
v -1.3000 0.0000 4.6500
v -0.7000 0.0000 4.6500
v -0.7000 0.4000 4.1500
v -1.3000 0.4000 4.1500
v -1.3000 0.0000 4.1500
v -0.7000 0.0000 4.1500
v 0.7000 0.0000 5.2500
v 1.3000 0.0000 5.2500
v 1.3000 0.4000 5.2500
v 0.7000 0.4000 5.2500
v 0.7000 0.0000 4.7500
v 1.3000 0.0000 4.7500
v 1.3000 0.4000 4.7500
v 0.7000 0.4000 4.7500
v 0.6839 0.4496 5.2500
v 1.1693 0.8023 5.2500
v 0.9342 1.1259 5.2500
v 0.4488 0.7733 5.2500
v 0.6839 0.4496 4.7500
v 1.1693 0.8023 4.7500
v 0.9342 1.1259 4.7500
v 0.4488 0.7733 4.7500
v 0.4065 0.8039 5.2500
v 0.5919 1.3746 5.2500
v 0.2115 1.4982 5.2500
v 0.0261 0.9275 5.2500
v 0.4065 0.8039 4.7500
v 0.5919 1.3746 4.7500
v 0.2115 1.4982 4.7500
v 0.0261 0.9275 4.7500
v -0.0261 0.9275 5.2500
v -0.2115 1.4982 5.2500
v -0.5919 1.3746 5.2500
v -0.4065 0.8039 5.2500
v -0.0261 0.9275 4.7500
v -0.2115 1.4982 4.7500
v -0.5919 1.3746 4.7500
v -0.4065 0.8039 4.7500
v -0.4488 0.7733 5.2500
v -0.9342 1.1259 5.2500
v -1.1693 0.8023 5.2500
v -0.6839 0.4496 5.2500
v -0.4488 0.7733 4.7500
v -0.9342 1.1259 4.7500
v -1.1693 0.8023 4.7500
v -0.6839 0.4496 4.7500
v -0.7000 0.4000 5.2500
v -1.3000 0.4000 5.2500
v -1.3000 0.0000 5.2500
v -0.7000 0.0000 5.2500
v -0.7000 0.4000 4.7500
v -1.3000 0.4000 4.7500
v -1.3000 0.0000 4.7500
v -0.7000 0.0000 4.7500
v 0.7000 0.0000 5.8500
v 1.3000 0.0000 5.8500
v 1.3000 0.4000 5.8500
v 0.7000 0.4000 5.8500
v 0.7000 0.0000 5.3500
v 1.3000 0.0000 5.3500
v 1.3000 0.4000 5.3500
v 0.7000 0.4000 5.3500
v 0.6839 0.4496 5.8500
v 1.1693 0.8023 5.8500
v 0.9342 1.1259 5.8500
v 0.4488 0.7733 5.8500
v 0.6839 0.4496 5.3500
v 1.1693 0.8023 5.3500
v 0.9342 1.1259 5.3500
v 0.4488 0.7733 5.3500
v 0.4065 0.8039 5.8500
v 0.5919 1.3746 5.8500
v 0.2115 1.4982 5.8500
v 0.0261 0.9275 5.8500
v 0.4065 0.8039 5.3500
v 0.5919 1.3746 5.3500
v 0.2115 1.4982 5.3500
v 0.0261 0.9275 5.3500
v -0.0261 0.9275 5.8500
v -0.2115 1.4982 5.8500
v -0.5919 1.3746 5.8500
v -0.4065 0.8039 5.8500
v -0.0261 0.9275 5.3500
v -0.2115 1.4982 5.3500
v -0.5919 1.3746 5.3500
v -0.4065 0.8039 5.3500
v -0.4488 0.7733 5.8500
v -0.9342 1.1259 5.8500
v -1.1693 0.8023 5.8500
v -0.6839 0.4496 5.8500
v -0.4488 0.7733 5.3500
v -0.9342 1.1259 5.3500
v -1.1693 0.8023 5.3500
v -0.6839 0.4496 5.3500
v -0.7000 0.4000 5.8500
v -1.3000 0.4000 5.8500
v -1.3000 0.0000 5.8500
v -0.7000 0.0000 5.8500
v -0.7000 0.4000 5.3500
v -1.3000 0.4000 5.3500
v -1.3000 0.0000 5.3500
v -0.7000 0.0000 5.3500
f 1 2 3 4
f 2 6 7 3
f 6 5 8 7
f 5 1 4 8
f 4 3 7 8
f 5 6 2 1
f 9 10 11 12
f 10 14 15 11
f 14 13 16 15
f 13 9 12 16
f 12 11 15 16
f 13 14 10 9
f 17 18 19 20
f 18 22 23 19
f 22 21 24 23
f 21 17 20 24
f 20 19 23 24
f 21 22 18 17
f 25 26 27 28
f 26 30 31 27
f 30 29 32 31
f 29 25 28 32
f 28 27 31 32
f 29 30 26 25
f 33 34 35 36
f 34 38 39 35
f 38 37 40 39
f 37 33 36 40
f 36 35 39 40
f 37 38 34 33
f 41 42 43 44
f 42 46 47 43
f 46 45 48 47
f 45 41 44 48
f 44 43 47 48
f 45 46 42 41
f 49 50 51 52
f 50 54 55 51
f 54 53 56 55
f 53 49 52 56
f 52 51 55 56
f 53 54 50 49
f 57 58 59 60
f 58 62 63 59
f 62 61 64 63
f 61 57 60 64
f 60 59 63 64
f 61 62 58 57
f 65 66 67 68
f 66 70 71 67
f 70 69 72 71
f 69 65 68 72
f 68 67 71 72
f 69 70 66 65
f 73 74 75 76
f 74 78 79 75
f 78 77 80 79
f 77 73 76 80
f 76 75 79 80
f 77 78 74 73
f 81 82 83 84
f 82 86 87 83
f 86 85 88 87
f 85 81 84 88
f 84 83 87 88
f 85 86 82 81
f 89 90 91 92
f 90 94 95 91
f 94 93 96 95
f 93 89 92 96
f 92 91 95 96
f 93 94 90 89
f 97 98 99 100
f 98 102 103 99
f 102 101 104 103
f 101 97 100 104
f 100 99 103 104
f 101 102 98 97
f 105 106 107 108
f 106 110 111 107
f 110 109 112 111
f 109 105 108 112
f 108 107 111 112
f 109 110 106 105
f 113 114 115 116
f 114 118 119 115
f 118 117 120 119
f 117 113 116 120
f 116 115 119 120
f 117 118 114 113
f 121 122 123 124
f 122 126 127 123
f 126 125 128 127
f 125 121 124 128
f 124 123 127 128
f 125 126 122 121
f 129 130 131 132
f 130 134 135 131
f 134 133 136 135
f 133 129 132 136
f 132 131 135 136
f 133 134 130 129
f 137 138 139 140
f 138 142 143 139
f 142 141 144 143
f 141 137 140 144
f 140 139 143 144
f 141 142 138 137
f 145 146 147 148
f 146 150 151 147
f 150 149 152 151
f 149 145 148 152
f 148 147 151 152
f 149 150 146 145
f 153 154 155 156
f 154 158 159 155
f 158 157 160 159
f 157 153 156 160
f 156 155 159 160
f 157 158 154 153
f 161 162 163 164
f 162 166 167 163
f 166 165 168 167
f 165 161 164 168
f 164 163 167 168
f 165 166 162 161
f 169 170 171 172
f 170 174 175 171
f 174 173 176 175
f 173 169 172 176
f 172 171 175 176
f 173 174 170 169
f 177 178 179 180
f 178 182 183 179
f 182 181 184 183
f 181 177 180 184
f 180 179 183 184
f 181 182 178 177
f 185 186 187 188
f 186 190 191 187
f 190 189 192 191
f 189 185 188 192
f 188 187 191 192
f 189 190 186 185
f 193 194 195 196
f 194 198 199 195
f 198 197 200 199
f 197 193 196 200
f 196 195 199 200
f 197 198 194 193
f 201 202 203 204
f 202 206 207 203
f 206 205 208 207
f 205 201 204 208
f 204 203 207 208
f 205 206 202 201
f 209 210 211 212
f 210 214 215 211
f 214 213 216 215
f 213 209 212 216
f 212 211 215 216
f 213 214 210 209
f 217 218 219 220
f 218 222 223 219
f 222 221 224 223
f 221 217 220 224
f 220 219 223 224
f 221 222 218 217
f 225 226 227 228
f 226 230 231 227
f 230 229 232 231
f 229 225 228 232
f 228 227 231 232
f 229 230 226 225
f 233 234 235 236
f 234 238 239 235
f 238 237 240 239
f 237 233 236 240
f 236 235 239 240
f 237 238 234 233
f 241 242 243 244
f 242 246 247 243
f 246 245 248 247
f 245 241 244 248
f 244 243 247 248
f 245 246 242 241
f 249 250 251 252
f 250 254 255 251
f 254 253 256 255
f 253 249 252 256
f 252 251 255 256
f 253 254 250 249
f 257 258 259 260
f 258 262 263 259
f 262 261 264 263
f 261 257 260 264
f 260 259 263 264
f 261 262 258 257
f 265 266 267 268
f 266 270 271 267
f 270 269 272 271
f 269 265 268 272
f 268 267 271 272
f 269 270 266 265
f 273 274 275 276
f 274 278 279 275
f 278 277 280 279
f 277 273 276 280
f 276 275 279 280
f 277 278 274 273
f 281 282 283 284
f 282 286 287 283
f 286 285 288 287
f 285 281 284 288
f 284 283 287 288
f 285 286 282 281
f 289 290 291 292
f 290 294 295 291
f 294 293 296 295
f 293 289 292 296
f 292 291 295 296
f 293 294 290 289
f 297 298 299 300
f 298 302 303 299
f 302 301 304 303
f 301 297 300 304
f 300 299 303 304
f 301 302 298 297
f 305 306 307 308
f 306 310 311 307
f 310 309 312 311
f 309 305 308 312
f 308 307 311 312
f 309 310 306 305
f 313 314 315 316
f 314 318 319 315
f 318 317 320 319
f 317 313 316 320
f 316 315 319 320
f 317 318 314 313
f 321 322 323 324
f 322 326 327 323
f 326 325 328 327
f 325 321 324 328
f 324 323 327 328
f 325 326 322 321
f 329 330 331 332
f 330 334 335 331
f 334 333 336 335
f 333 329 332 336
f 332 331 335 336
f 333 334 330 329
f 337 338 339 340
f 338 342 343 339
f 342 341 344 343
f 341 337 340 344
f 340 339 343 344
f 341 342 338 337
f 345 346 347 348
f 346 350 351 347
f 350 349 352 351
f 349 345 348 352
f 348 347 351 352
f 349 350 346 345
f 353 354 355 356
f 354 358 359 355
f 358 357 360 359
f 357 353 356 360
f 356 355 359 360
f 357 358 354 353
f 361 362 363 364
f 362 366 367 363
f 366 365 368 367
f 365 361 364 368
f 364 363 367 368
f 365 366 362 361
f 369 370 371 372
f 370 374 375 371
f 374 373 376 375
f 373 369 372 376
f 372 371 375 376
f 373 374 370 369
f 377 378 379 380
f 378 382 383 379
f 382 381 384 383
f 381 377 380 384
f 380 379 383 384
f 381 382 378 377
f 385 386 387 388
f 386 390 391 387
f 390 389 392 391
f 389 385 388 392
f 388 387 391 392
f 389 390 386 385
f 393 394 395 396
f 394 398 399 395
f 398 397 400 399
f 397 393 396 400
f 396 395 399 400
f 397 398 394 393
f 401 402 403 404
f 402 406 407 403
f 406 405 408 407
f 405 401 404 408
f 404 403 407 408
f 405 406 402 401
f 409 410 411 412
f 410 414 415 411
f 414 413 416 415
f 413 409 412 416
f 412 411 415 416
f 413 414 410 409
f 417 418 419 420
f 418 422 423 419
f 422 421 424 423
f 421 417 420 424
f 420 419 423 424
f 421 422 418 417
f 425 426 427 428
f 426 430 431 427
f 430 429 432 431
f 429 425 428 432
f 428 427 431 432
f 429 430 426 425
f 433 434 435 436
f 434 438 439 435
f 438 437 440 439
f 437 433 436 440
f 436 435 439 440
f 437 438 434 433
f 441 442 443 444
f 442 446 447 443
f 446 445 448 447
f 445 441 444 448
f 444 443 447 448
f 445 446 442 441
f 449 450 451 452
f 450 454 455 451
f 454 453 456 455
f 453 449 452 456
f 452 451 455 456
f 453 454 450 449
f 457 458 459 460
f 458 462 463 459
f 462 461 464 463
f 461 457 460 464
f 460 459 463 464
f 461 462 458 457
f 465 466 467 468
f 466 470 471 467
f 470 469 472 471
f 469 465 468 472
f 468 467 471 472
f 469 470 466 465
f 473 474 475 476
f 474 478 479 475
f 478 477 480 479
f 477 473 476 480
f 476 475 479 480
f 477 478 474 473
f 481 482 483 484
f 482 486 487 483
f 486 485 488 487
f 485 481 484 488
f 484 483 487 488
f 485 486 482 481
f 489 490 491 492
f 490 494 495 491
f 494 493 496 495
f 493 489 492 496
f 492 491 495 496
f 493 494 490 489
f 497 498 499 500
f 498 502 503 499
f 502 501 504 503
f 501 497 500 504
f 500 499 503 504
f 501 502 498 497
f 505 506 507 508
f 506 510 511 507
f 510 509 512 511
f 509 505 508 512
f 508 507 511 512
f 509 510 506 505
f 513 514 515 516
f 514 518 519 515
f 518 517 520 519
f 517 513 516 520
f 516 515 519 520
f 517 518 514 513
f 521 522 523 524
f 522 526 527 523
f 526 525 528 527
f 525 521 524 528
f 524 523 527 528
f 525 526 522 521
f 529 530 531 532
f 530 534 535 531
f 534 533 536 535
f 533 529 532 536
f 532 531 535 536
f 533 534 530 529
f 537 538 539 540
f 538 542 543 539
f 542 541 544 543
f 541 537 540 544
f 540 539 543 544
f 541 542 538 537
f 545 546 547 548
f 546 550 551 547
f 550 549 552 551
f 549 545 548 552
f 548 547 551 552
f 549 550 546 545
f 553 554 555 556
f 554 558 559 555
f 558 557 560 559
f 557 553 556 560
f 556 555 559 560
f 557 558 554 553
f 561 562 563 564
f 562 566 567 563
f 566 565 568 567
f 565 561 564 568
f 564 563 567 568
f 565 566 562 561
f 569 570 571 572
f 570 574 575 571
f 574 573 576 575
f 573 569 572 576
f 572 571 575 576
f 573 574 570 569
f 577 578 579 580
f 578 582 583 579
f 582 581 584 583
f 581 577 580 584
f 580 579 583 584
f 581 582 578 577
f 585 586 587 588
f 586 590 591 587
f 590 589 592 591
f 589 585 588 592
f 588 587 591 592
f 589 590 586 585
f 593 594 595 596
f 594 598 599 595
f 598 597 600 599
f 597 593 596 600
f 596 595 599 600
f 597 598 594 593
f 601 602 603 604
f 602 606 607 603
f 606 605 608 607
f 605 601 604 608
f 604 603 607 608
f 605 606 602 601
f 609 610 611 612
f 610 614 615 611
f 614 613 616 615
f 613 609 612 616
f 612 611 615 616
f 613 614 610 609
f 617 618 619 620
f 618 622 623 619
f 622 621 624 623
f 621 617 620 624
f 620 619 623 624
f 621 622 618 617
f 625 626 627 628
f 626 630 631 627
f 630 629 632 631
f 629 625 628 632
f 628 627 631 632
f 629 630 626 625
f 633 634 635 636
f 634 638 639 635
f 638 637 640 639
f 637 633 636 640
f 636 635 639 640
f 637 638 634 633
f 641 642 643 644
f 642 646 647 643
f 646 645 648 647
f 645 641 644 648
f 644 643 647 648
f 645 646 642 641
f 649 650 651 652
f 650 654 655 651
f 654 653 656 655
f 653 649 652 656
f 652 651 655 656
f 653 654 650 649
f 657 658 659 660
f 658 662 663 659
f 662 661 664 663
f 661 657 660 664
f 660 659 663 664
f 661 662 658 657
f 665 666 667 668
f 666 670 671 667
f 670 669 672 671
f 669 665 668 672
f 668 667 671 672
f 669 670 666 665
f 673 674 675 676
f 674 678 679 675
f 678 677 680 679
f 677 673 676 680
f 676 675 679 680
f 677 678 674 673
f 681 682 683 684
f 682 686 687 683
f 686 685 688 687
f 685 681 684 688
f 684 683 687 688
f 685 686 682 681
f 689 690 691 692
f 690 694 695 691
f 694 693 696 695
f 693 689 692 696
f 692 691 695 696
f 693 694 690 689
f 697 698 699 700
f 698 702 703 699
f 702 701 704 703
f 701 697 700 704
f 700 699 703 704
f 701 702 698 697
f 705 706 707 708
f 706 710 711 707
f 710 709 712 711
f 709 705 708 712
f 708 707 711 712
f 709 710 706 705
f 713 714 715 716
f 714 718 719 715
f 718 717 720 719
f 717 713 716 720
f 716 715 719 720
f 717 718 714 713
f 721 722 723 724
f 722 726 727 723
f 726 725 728 727
f 725 721 724 728
f 724 723 727 728
f 725 726 722 721
f 729 730 731 732
f 730 734 735 731
f 734 733 736 735
f 733 729 732 736
f 732 731 735 736
f 733 734 730 729
f 737 738 739 740
f 738 742 743 739
f 742 741 744 743
f 741 737 740 744
f 740 739 743 744
f 741 742 738 737
f 745 746 747 748
f 746 750 751 747
f 750 749 752 751
f 749 745 748 752
f 748 747 751 752
f 749 750 746 745
f 753 754 755 756
f 754 758 759 755
f 758 757 760 759
f 757 753 756 760
f 756 755 759 760
f 757 758 754 753
f 761 762 763 764
f 762 766 767 763
f 766 765 768 767
f 765 761 764 768
f 764 763 767 768
f 765 766 762 761
f 769 770 771 772
f 770 774 775 771
f 774 773 776 775
f 773 769 772 776
f 772 771 775 776
f 773 774 770 769
f 777 778 779 780
f 778 782 783 779
f 782 781 784 783
f 781 777 780 784
f 780 779 783 784
f 781 782 778 777
f 785 786 787 788
f 786 790 791 787
f 790 789 792 791
f 789 785 788 792
f 788 787 791 792
f 789 790 786 785
f 793 794 795 796
f 794 798 799 795
f 798 797 800 799
f 797 793 796 800
f 796 795 799 800
f 797 798 794 793
f 801 802 803 804
f 802 806 807 803
f 806 805 808 807
f 805 801 804 808
f 804 803 807 808
f 805 806 802 801
f 809 810 811 812
f 810 814 815 811
f 814 813 816 815
f 813 809 812 816
f 812 811 815 816
f 813 814 810 809
f 817 818 819 820
f 818 822 823 819
f 822 821 824 823
f 821 817 820 824
f 820 819 823 824
f 821 822 818 817
f 825 826 827 828
f 826 830 831 827
f 830 829 832 831
f 829 825 828 832
f 828 827 831 832
f 829 830 826 825
f 833 834 835 836
f 834 838 839 835
f 838 837 840 839
f 837 833 836 840
f 836 835 839 840
f 837 838 834 833
f 841 842 843 844
f 842 846 847 843
f 846 845 848 847
f 845 841 844 848
f 844 843 847 848
f 845 846 842 841
f 849 850 851 852
f 850 854 855 851
f 854 853 856 855
f 853 849 852 856
f 852 851 855 856
f 853 854 850 849
f 857 858 859 860
f 858 862 863 859
f 862 861 864 863
f 861 857 860 864
f 860 859 863 864
f 861 862 858 857
f 865 866 867 868
f 866 870 871 867
f 870 869 872 871
f 869 865 868 872
f 868 867 871 872
f 869 870 866 865
f 873 874 875 876
f 874 878 879 875
f 878 877 880 879
f 877 873 876 880
f 876 875 879 880
f 877 878 874 873
f 881 882 883 884
f 882 886 887 883
f 886 885 888 887
f 885 881 884 888
f 884 883 887 888
f 885 886 882 881
f 889 890 891 892
f 890 894 895 891
f 894 893 896 895
f 893 889 892 896
f 892 891 895 896
f 893 894 890 889
f 897 898 899 900
f 898 902 903 899
f 902 901 904 903
f 901 897 900 904
f 900 899 903 904
f 901 902 898 897
f 905 906 907 908
f 906 910 911 907
f 910 909 912 911
f 909 905 908 912
f 908 907 911 912
f 909 910 906 905
f 913 914 915 916
f 914 918 919 915
f 918 917 920 919
f 917 913 916 920
f 916 915 919 920
f 917 918 914 913
f 921 922 923 924
f 922 926 927 923
f 926 925 928 927
f 925 921 924 928
f 924 923 927 928
f 925 926 922 921
f 929 930 931 932
f 930 934 935 931
f 934 933 936 935
f 933 929 932 936
f 932 931 935 936
f 933 934 930 929
f 937 938 939 940
f 938 942 943 939
f 942 941 944 943
f 941 937 940 944
f 940 939 943 944
f 941 942 938 937
f 945 946 947 948
f 946 950 951 947
f 950 949 952 951
f 949 945 948 952
f 948 947 951 952
f 949 950 946 945
f 953 954 955 956
f 954 958 959 955
f 958 957 960 959
f 957 953 956 960
f 956 955 959 960
f 957 958 954 953
f 961 962 963 964
f 962 966 967 963
f 966 965 968 967
f 965 961 964 968
f 964 963 967 968
f 965 966 962 961
f 969 970 971 972
f 970 974 975 971
f 974 973 976 975
f 973 969 972 976
f 972 971 975 976
f 973 974 970 969
f 977 978 979 980
f 978 982 983 979
f 982 981 984 983
f 981 977 980 984
f 980 979 983 984
f 981 982 978 977
f 985 986 987 988
f 986 990 991 987
f 990 989 992 991
f 989 985 988 992
f 988 987 991 992
f 989 990 986 985
f 993 994 995 996
f 994 998 999 995
f 998 997 1000 999
f 997 993 996 1000
f 996 995 999 1000
f 997 998 994 993
f 1001 1002 1003 1004
f 1002 1006 1007 1003
f 1006 1005 1008 1007
f 1005 1001 1004 1008
f 1004 1003 1007 1008
f 1005 1006 1002 1001
f 1009 1010 1011 1012
f 1010 1014 1015 1011
f 1014 1013 1016 1015
f 1013 1009 1012 1016
f 1012 1011 1015 1016
f 1013 1014 1010 1009
f 1017 1018 1019 1020
f 1018 1022 1023 1019
f 1022 1021 1024 1023
f 1021 1017 1020 1024
f 1020 1019 1023 1024
f 1021 1022 1018 1017
f 1025 1026 1027 1028
f 1026 1030 1031 1027
f 1030 1029 1032 1031
f 1029 1025 1028 1032
f 1028 1027 1031 1032
f 1029 1030 1026 1025
f 1033 1034 1035 1036
f 1034 1038 1039 1035
f 1038 1037 1040 1039
f 1037 1033 1036 1040
f 1036 1035 1039 1040
f 1037 1038 1034 1033
f 1041 1042 1043 1044
f 1042 1046 1047 1043
f 1046 1045 1048 1047
f 1045 1041 1044 1048
f 1044 1043 1047 1048
f 1045 1046 1042 1041
f 1049 1050 1051 1052
f 1050 1054 1055 1051
f 1054 1053 1056 1055
f 1053 1049 1052 1056
f 1052 1051 1055 1056
f 1053 1054 1050 1049
f 1057 1058 1059 1060
f 1058 1062 1063 1059
f 1062 1061 1064 1063
f 1061 1057 1060 1064
f 1060 1059 1063 1064
f 1061 1062 1058 1057
f 1065 1066 1067 1068
f 1066 1070 1071 1067
f 1070 1069 1072 1071
f 1069 1065 1068 1072
f 1068 1067 1071 1072
f 1069 1070 1066 1065
f 1073 1074 1075 1076
f 1074 1078 1079 1075
f 1078 1077 1080 1079
f 1077 1073 1076 1080
f 1076 1075 1079 1080
f 1077 1078 1074 1073
f 1081 1082 1083 1084
f 1082 1086 1087 1083
f 1086 1085 1088 1087
f 1085 1081 1084 1088
f 1084 1083 1087 1088
f 1085 1086 1082 1081
f 1089 1090 1091 1092
f 1090 1094 1095 1091
f 1094 1093 1096 1095
f 1093 1089 1092 1096
f 1092 1091 1095 1096
f 1093 1094 1090 1089
f 1097 1098 1099 1100
f 1098 1102 1103 1099
f 1102 1101 1104 1103
f 1101 1097 1100 1104
f 1100 1099 1103 1104
f 1101 1102 1098 1097
f 1105 1106 1107 1108
f 1106 1110 1111 1107
f 1110 1109 1112 1111
f 1109 1105 1108 1112
f 1108 1107 1111 1112
f 1109 1110 1106 1105
f 1113 1114 1115 1116
f 1114 1118 1119 1115
f 1118 1117 1120 1119
f 1117 1113 1116 1120
f 1116 1115 1119 1120
f 1117 1118 1114 1113
f 1121 1122 1123 1124
f 1122 1126 1127 1123
f 1126 1125 1128 1127
f 1125 1121 1124 1128
f 1124 1123 1127 1128
f 1125 1126 1122 1121
f 1129 1130 1131 1132
f 1130 1134 1135 1131
f 1134 1133 1136 1135
f 1133 1129 1132 1136
f 1132 1131 1135 1136
f 1133 1134 1130 1129
f 1137 1138 1139 1140
f 1138 1142 1143 1139
f 1142 1141 1144 1143
f 1141 1137 1140 1144
f 1140 1139 1143 1144
f 1141 1142 1138 1137
f 1145 1146 1147 1148
f 1146 1150 1151 1147
f 1150 1149 1152 1151
f 1149 1145 1148 1152
f 1148 1147 1151 1152
f 1149 1150 1146 1145
f 1153 1154 1155 1156
f 1154 1158 1159 1155
f 1158 1157 1160 1159
f 1157 1153 1156 1160
f 1156 1155 1159 1160
f 1157 1158 1154 1153
f 1161 1162 1163 1164
f 1162 1166 1167 1163
f 1166 1165 1168 1167
f 1165 1161 1164 1168
f 1164 1163 1167 1168
f 1165 1166 1162 1161
f 1169 1170 1171 1172
f 1170 1174 1175 1171
f 1174 1173 1176 1175
f 1173 1169 1172 1176
f 1172 1171 1175 1176
f 1173 1174 1170 1169
f 1177 1178 1179 1180
f 1178 1182 1183 1179
f 1182 1181 1184 1183
f 1181 1177 1180 1184
f 1180 1179 1183 1184
f 1181 1182 1178 1177
f 1185 1186 1187 1188
f 1186 1190 1191 1187
f 1190 1189 1192 1191
f 1189 1185 1188 1192
f 1188 1187 1191 1192
f 1189 1190 1186 1185
f 1193 1194 1195 1196
f 1194 1198 1199 1195
f 1198 1197 1200 1199
f 1197 1193 1196 1200
f 1196 1195 1199 1200
f 1197 1198 1194 1193
f 1201 1202 1203 1204
f 1202 1206 1207 1203
f 1206 1205 1208 1207
f 1205 1201 1204 1208
f 1204 1203 1207 1208
f 1205 1206 1202 1201
f 1209 1210 1211 1212
f 1210 1214 1215 1211
f 1214 1213 1216 1215
f 1213 1209 1212 1216
f 1212 1211 1215 1216
f 1213 1214 1210 1209
f 1217 1218 1219 1220
f 1218 1222 1223 1219
f 1222 1221 1224 1223
f 1221 1217 1220 1224
f 1220 1219 1223 1224
f 1221 1222 1218 1217
f 1225 1226 1227 1228
f 1226 1230 1231 1227
f 1230 1229 1232 1231
f 1229 1225 1228 1232
f 1228 1227 1231 1232
f 1229 1230 1226 1225
f 1233 1234 1235 1236
f 1234 1238 1239 1235
f 1238 1237 1240 1239
f 1237 1233 1236 1240
f 1236 1235 1239 1240
f 1237 1238 1234 1233
f 1241 1242 1243 1244
f 1242 1246 1247 1243
f 1246 1245 1248 1247
f 1245 1241 1244 1248
f 1244 1243 1247 1248
f 1245 1246 1242 1241
f 1249 1250 1251 1252
f 1250 1254 1255 1251
f 1254 1253 1256 1255
f 1253 1249 1252 1256
f 1252 1251 1255 1256
f 1253 1254 1250 1249
f 1257 1258 1259 1260
f 1258 1262 1263 1259
f 1262 1261 1264 1263
f 1261 1257 1260 1264
f 1260 1259 1263 1264
f 1261 1262 1258 1257
f 1265 1266 1267 1268
f 1266 1270 1271 1267
f 1270 1269 1272 1271
f 1269 1265 1268 1272
f 1268 1267 1271 1272
f 1269 1270 1266 1265
f 1273 1274 1275 1276
f 1274 1278 1279 1275
f 1278 1277 1280 1279
f 1277 1273 1276 1280
f 1276 1275 1279 1280
f 1277 1278 1274 1273
f 1281 1282 1283 1284
f 1282 1286 1287 1283
f 1286 1285 1288 1287
f 1285 1281 1284 1288
f 1284 1283 1287 1288
f 1285 1286 1282 1281
